<?xml version="1.0" standalone="no"?>
<!DOCTYPE svg PUBLIC "-//W3C//DTD SVG 20010904//EN"
 "http://www.w3.org/TR/2001/REC-SVG-20010904/DTD/svg10.dtd">
<svg version="1.0" xmlns="http://www.w3.org/2000/svg"
 width="16.000000pt" height="16.000000pt" viewBox="0 0 16.000000 16.000000"
 preserveAspectRatio="xMidYMid meet">

<g transform="translate(0.000000,16.000000) scale(0.100000,-0.100000)"
fill="#000000" stroke="none">
<path d="M32 112 c-18 -15 -32 -34 -32 -42 0 -22 21 -40 44 -39 18 1 17 2 -4
8 -32 9 -39 46 -12 60 11 6 22 8 24 5 3 -2 11 2 17 10 22 26 -4 25 -37 -2z"/>
<path d="M90 136 c0 -2 7 -7 16 -10 8 -3 12 -2 9 4 -6 10 -25 14 -25 6z"/>
<path d="M120 103 c0 -6 7 -14 16 -17 23 -9 13 -39 -16 -48 l-25 -7 24 2 c13
1 29 10 35 19 8 14 6 22 -12 40 -12 12 -22 17 -22 11z"/>
<path d="M75 60 c3 -5 8 -10 11 -10 2 0 4 5 4 10 0 6 -5 10 -11 10 -5 0 -7 -4
-4 -10z"/>
</g>
</svg>
